<svg xmlns="http://www.w3.org/2000/svg" version="1.1" xmlns:xlink="http://www.w3.org/1999/xlink" xmlns:svgjs="http://svgjs.dev/svgjs" width="1920" height="1080" preserveAspectRatio="none" viewBox="0 0 1920 1080"><g mask="url(&quot;#SvgjsMask1102&quot;)" fill="none"><rect width="1920" height="1080" x="0" y="0" fill="rgba(15, 15, 15, 1)"></rect><path d="M23.13 -65.76L88.08 -28.26L88.08 46.74L23.13 84.24L-41.82 46.74L-41.82 -28.26zM23.13 1059.24L88.08 1096.74L88.08 1171.74L23.13 1209.24L-41.82 1171.74L-41.82 1096.74zM153.04 -65.76L217.99 -28.26L217.99 46.74L153.04 84.24L88.08 46.74L88.08 -28.26zM153.04 159.24L217.99 196.74L217.99 271.74L153.04 309.24L88.08 271.74L88.08 196.74zM217.99 271.74L282.94 309.24L282.94 384.24L217.99 421.74L153.04 384.24L153.04 309.24zM153.04 834.24L217.99 871.74L217.99 946.74L153.04 984.24L88.08 946.74L88.08 871.74zM347.9 46.74L412.85 84.24L412.85 159.24L347.9 196.74L282.94 159.24L282.94 84.24zM282.94 609.24L347.9 646.74L347.9 721.74L282.94 759.24L217.99 721.74L217.99 646.74zM347.9 946.74L412.85 984.24L412.85 1059.24L347.9 1096.74L282.94 1059.24L282.94 984.24zM477.81 496.74L542.76 534.24L542.76 609.24L477.81 646.74L412.85 609.24L412.85 534.24zM477.81 721.74L542.76 759.24L542.76 834.24L477.81 871.74L412.85 834.24L412.85 759.24zM542.76 -65.76L607.71 -28.26L607.71 46.74L542.76 84.24L477.81 46.74L477.81 -28.26zM737.62 721.74L802.58 759.24L802.58 834.24L737.62 871.74L672.67 834.24L672.67 759.24zM672.67 1059.24L737.62 1096.74L737.62 1171.74L672.67 1209.24L607.71 1171.74L607.71 1096.74zM802.57 834.24L867.53 871.74L867.53 946.74L802.57 984.24L737.62 946.74L737.62 871.74zM932.48 609.24L997.44 646.74L997.44 721.74L932.48 759.24L867.53 721.74L867.53 646.74zM932.48 834.24L997.44 871.74L997.44 946.74L932.48 984.24L867.53 946.74L867.53 871.74zM932.48 1059.24L997.44 1096.74L997.44 1171.74L932.48 1209.24L867.53 1171.74L867.53 1096.74zM1127.34 46.74L1192.3 84.24L1192.3 159.24L1127.34 196.74L1062.39 159.24L1062.39 84.24zM1062.39 159.24L1127.34 196.74L1127.34 271.74L1062.39 309.24L997.44 271.74L997.44 196.74zM1127.34 271.74L1192.3 309.24L1192.3 384.24L1127.34 421.74L1062.39 384.24L1062.39 309.24zM1127.34 496.74L1192.3 534.24L1192.3 609.24L1127.34 646.74L1062.39 609.24L1062.39 534.24zM1062.39 1059.24L1127.34 1096.74L1127.34 1171.74L1062.39 1209.24L997.44 1171.74L997.44 1096.74zM1192.3 -65.76L1257.25 -28.26L1257.25 46.74L1192.3 84.24L1127.34 46.74L1127.34 -28.26zM1192.3 159.24L1257.25 196.74L1257.25 271.74L1192.3 309.24L1127.34 271.74L1127.34 196.74zM1192.3 384.24L1257.25 421.74L1257.25 496.74L1192.3 534.24L1127.34 496.74L1127.34 421.74zM1192.3 834.24L1257.25 871.74L1257.25 946.74L1192.3 984.24L1127.34 946.74L1127.34 871.74zM1387.16 46.74L1452.11 84.24L1452.11 159.24L1387.16 196.74L1322.21 159.24L1322.21 84.24zM1387.16 721.74L1452.11 759.24L1452.11 834.24L1387.16 871.74L1322.21 834.24L1322.21 759.24zM1452.11 384.24L1517.07 421.74L1517.07 496.74L1452.11 534.24L1387.16 496.74L1387.16 421.74zM1517.07 496.74L1582.02 534.24L1582.02 609.24L1517.07 646.74L1452.11 609.24L1452.11 534.24zM1517.07 721.74L1582.02 759.24L1582.02 834.24L1517.07 871.74L1452.11 834.24L1452.11 759.24zM1517.07 946.74L1582.02 984.24L1582.02 1059.24L1517.07 1096.74L1452.11 1059.24L1452.11 984.24zM1452.11 1059.24L1517.07 1096.74L1517.07 1171.74L1452.11 1209.24L1387.16 1171.74L1387.16 1096.74zM1582.02 159.24L1646.97 196.74L1646.97 271.74L1582.02 309.24L1517.07 271.74L1517.07 196.74zM1646.97 271.74L1711.93 309.24L1711.93 384.24L1646.97 421.74L1582.02 384.24L1582.02 309.24zM1646.97 721.74L1711.93 759.24L1711.93 834.24L1646.97 871.74L1582.02 834.24L1582.02 759.24zM1646.97 946.74L1711.93 984.24L1711.93 1059.24L1646.97 1096.74L1582.02 1059.24L1582.02 984.24zM1776.88 46.74L1841.83 84.24L1841.83 159.24L1776.88 196.74L1711.93 159.24L1711.93 84.24zM1711.93 159.24L1776.88 196.74L1776.88 271.74L1711.93 309.24L1646.97 271.74L1646.97 196.74zM1776.88 946.74L1841.83 984.24L1841.83 1059.24L1776.88 1096.74L1711.93 1059.24L1711.93 984.24zM1906.79 496.74L1971.74 534.24L1971.74 609.24L1906.79 646.74L1841.84 609.24L1841.84 534.24zM1841.84 834.24L1906.79 871.74L1906.79 946.74L1841.84 984.24L1776.88 946.74L1776.88 871.74z" stroke="rgba(84, 64, 1, 1)" stroke-width="2"></path><path d="M15.63 -65.76 a7.5 7.5 0 1 0 15 0 a7.5 7.5 0 1 0 -15 0zM80.58 -28.26 a7.5 7.5 0 1 0 15 0 a7.5 7.5 0 1 0 -15 0zM80.58 46.74 a7.5 7.5 0 1 0 15 0 a7.5 7.5 0 1 0 -15 0zM15.63 84.24 a7.5 7.5 0 1 0 15 0 a7.5 7.5 0 1 0 -15 0zM-49.32 46.74 a7.5 7.5 0 1 0 15 0 a7.5 7.5 0 1 0 -15 0zM-49.32 -28.26 a7.5 7.5 0 1 0 15 0 a7.5 7.5 0 1 0 -15 0zM15.63 1059.24 a7.5 7.5 0 1 0 15 0 a7.5 7.5 0 1 0 -15 0zM80.58 1096.74 a7.5 7.5 0 1 0 15 0 a7.5 7.5 0 1 0 -15 0zM80.58 1171.74 a7.5 7.5 0 1 0 15 0 a7.5 7.5 0 1 0 -15 0zM15.63 1209.24 a7.5 7.5 0 1 0 15 0 a7.5 7.5 0 1 0 -15 0zM-49.32 1171.74 a7.5 7.5 0 1 0 15 0 a7.5 7.5 0 1 0 -15 0zM-49.32 1096.74 a7.5 7.5 0 1 0 15 0 a7.5 7.5 0 1 0 -15 0zM145.54 -65.76 a7.5 7.5 0 1 0 15 0 a7.5 7.5 0 1 0 -15 0zM210.49 -28.26 a7.5 7.5 0 1 0 15 0 a7.5 7.5 0 1 0 -15 0zM210.49 46.74 a7.5 7.5 0 1 0 15 0 a7.5 7.5 0 1 0 -15 0zM145.54 84.24 a7.5 7.5 0 1 0 15 0 a7.5 7.5 0 1 0 -15 0zM145.54 159.24 a7.5 7.5 0 1 0 15 0 a7.5 7.5 0 1 0 -15 0zM210.49 196.74 a7.5 7.5 0 1 0 15 0 a7.5 7.5 0 1 0 -15 0zM210.49 271.74 a7.5 7.5 0 1 0 15 0 a7.5 7.5 0 1 0 -15 0zM145.54 309.24 a7.5 7.5 0 1 0 15 0 a7.5 7.5 0 1 0 -15 0zM80.58 271.74 a7.5 7.5 0 1 0 15 0 a7.5 7.5 0 1 0 -15 0zM80.58 196.74 a7.5 7.5 0 1 0 15 0 a7.5 7.5 0 1 0 -15 0zM275.44 309.24 a7.5 7.5 0 1 0 15 0 a7.5 7.5 0 1 0 -15 0zM275.44 384.24 a7.5 7.5 0 1 0 15 0 a7.5 7.5 0 1 0 -15 0zM210.49 421.74 a7.5 7.5 0 1 0 15 0 a7.5 7.5 0 1 0 -15 0zM145.54 384.24 a7.5 7.5 0 1 0 15 0 a7.5 7.5 0 1 0 -15 0zM145.54 834.24 a7.5 7.5 0 1 0 15 0 a7.5 7.5 0 1 0 -15 0zM210.49 871.74 a7.5 7.5 0 1 0 15 0 a7.5 7.5 0 1 0 -15 0zM210.49 946.74 a7.5 7.5 0 1 0 15 0 a7.5 7.5 0 1 0 -15 0zM145.54 984.24 a7.5 7.5 0 1 0 15 0 a7.5 7.5 0 1 0 -15 0zM80.58 946.74 a7.5 7.5 0 1 0 15 0 a7.5 7.5 0 1 0 -15 0zM80.58 871.74 a7.5 7.5 0 1 0 15 0 a7.5 7.5 0 1 0 -15 0zM340.4 46.74 a7.5 7.5 0 1 0 15 0 a7.5 7.5 0 1 0 -15 0zM405.35 84.24 a7.5 7.5 0 1 0 15 0 a7.5 7.5 0 1 0 -15 0zM405.35 159.24 a7.5 7.5 0 1 0 15 0 a7.5 7.5 0 1 0 -15 0zM340.4 196.74 a7.5 7.5 0 1 0 15 0 a7.5 7.5 0 1 0 -15 0zM275.44 159.24 a7.5 7.5 0 1 0 15 0 a7.5 7.5 0 1 0 -15 0zM275.44 84.24 a7.5 7.5 0 1 0 15 0 a7.5 7.5 0 1 0 -15 0zM275.44 609.24 a7.5 7.5 0 1 0 15 0 a7.5 7.5 0 1 0 -15 0zM340.4 646.74 a7.5 7.5 0 1 0 15 0 a7.5 7.5 0 1 0 -15 0zM340.4 721.74 a7.5 7.5 0 1 0 15 0 a7.5 7.5 0 1 0 -15 0zM275.44 759.24 a7.5 7.5 0 1 0 15 0 a7.5 7.5 0 1 0 -15 0zM210.49 721.74 a7.5 7.5 0 1 0 15 0 a7.5 7.5 0 1 0 -15 0zM210.49 646.74 a7.5 7.5 0 1 0 15 0 a7.5 7.5 0 1 0 -15 0zM340.4 946.74 a7.5 7.5 0 1 0 15 0 a7.5 7.5 0 1 0 -15 0zM405.35 984.24 a7.5 7.5 0 1 0 15 0 a7.5 7.5 0 1 0 -15 0zM405.35 1059.24 a7.5 7.5 0 1 0 15 0 a7.5 7.5 0 1 0 -15 0zM340.4 1096.74 a7.5 7.5 0 1 0 15 0 a7.5 7.5 0 1 0 -15 0zM275.44 1059.24 a7.5 7.5 0 1 0 15 0 a7.5 7.5 0 1 0 -15 0zM275.44 984.24 a7.5 7.5 0 1 0 15 0 a7.5 7.5 0 1 0 -15 0zM470.31 496.74 a7.5 7.5 0 1 0 15 0 a7.5 7.5 0 1 0 -15 0zM535.26 534.24 a7.5 7.5 0 1 0 15 0 a7.5 7.5 0 1 0 -15 0zM535.26 609.24 a7.5 7.5 0 1 0 15 0 a7.5 7.5 0 1 0 -15 0zM470.31 646.74 a7.5 7.5 0 1 0 15 0 a7.5 7.5 0 1 0 -15 0zM405.35 609.24 a7.5 7.5 0 1 0 15 0 a7.5 7.5 0 1 0 -15 0zM405.35 534.24 a7.5 7.5 0 1 0 15 0 a7.5 7.5 0 1 0 -15 0zM470.31 721.74 a7.5 7.5 0 1 0 15 0 a7.5 7.5 0 1 0 -15 0zM535.26 759.24 a7.5 7.5 0 1 0 15 0 a7.5 7.5 0 1 0 -15 0zM535.26 834.24 a7.5 7.5 0 1 0 15 0 a7.5 7.5 0 1 0 -15 0zM470.31 871.74 a7.5 7.5 0 1 0 15 0 a7.5 7.5 0 1 0 -15 0zM405.35 834.24 a7.5 7.5 0 1 0 15 0 a7.5 7.5 0 1 0 -15 0zM405.35 759.24 a7.5 7.5 0 1 0 15 0 a7.5 7.5 0 1 0 -15 0zM535.26 -65.76 a7.5 7.5 0 1 0 15 0 a7.5 7.5 0 1 0 -15 0zM600.21 -28.26 a7.5 7.5 0 1 0 15 0 a7.5 7.5 0 1 0 -15 0zM600.21 46.74 a7.5 7.5 0 1 0 15 0 a7.5 7.5 0 1 0 -15 0zM535.26 84.24 a7.5 7.5 0 1 0 15 0 a7.5 7.5 0 1 0 -15 0zM470.31 46.74 a7.5 7.5 0 1 0 15 0 a7.5 7.5 0 1 0 -15 0zM470.31 -28.26 a7.5 7.5 0 1 0 15 0 a7.5 7.5 0 1 0 -15 0zM730.12 721.74 a7.5 7.5 0 1 0 15 0 a7.5 7.5 0 1 0 -15 0zM795.08 759.24 a7.5 7.5 0 1 0 15 0 a7.5 7.5 0 1 0 -15 0zM795.08 834.24 a7.5 7.5 0 1 0 15 0 a7.5 7.5 0 1 0 -15 0zM730.12 871.74 a7.5 7.5 0 1 0 15 0 a7.5 7.5 0 1 0 -15 0zM665.17 834.24 a7.5 7.5 0 1 0 15 0 a7.5 7.5 0 1 0 -15 0zM665.17 759.24 a7.5 7.5 0 1 0 15 0 a7.5 7.5 0 1 0 -15 0zM665.17 1059.24 a7.5 7.5 0 1 0 15 0 a7.5 7.5 0 1 0 -15 0zM730.12 1096.74 a7.5 7.5 0 1 0 15 0 a7.5 7.5 0 1 0 -15 0zM730.12 1171.74 a7.5 7.5 0 1 0 15 0 a7.5 7.5 0 1 0 -15 0zM665.17 1209.24 a7.5 7.5 0 1 0 15 0 a7.5 7.5 0 1 0 -15 0zM600.21 1171.74 a7.5 7.5 0 1 0 15 0 a7.5 7.5 0 1 0 -15 0zM600.21 1096.74 a7.5 7.5 0 1 0 15 0 a7.5 7.5 0 1 0 -15 0zM795.07 834.24 a7.5 7.5 0 1 0 15 0 a7.5 7.5 0 1 0 -15 0zM860.03 871.74 a7.5 7.5 0 1 0 15 0 a7.5 7.5 0 1 0 -15 0zM860.03 946.74 a7.5 7.5 0 1 0 15 0 a7.5 7.5 0 1 0 -15 0zM795.07 984.24 a7.5 7.5 0 1 0 15 0 a7.5 7.5 0 1 0 -15 0zM730.12 946.74 a7.5 7.5 0 1 0 15 0 a7.5 7.5 0 1 0 -15 0zM924.98 609.24 a7.5 7.5 0 1 0 15 0 a7.5 7.5 0 1 0 -15 0zM989.94 646.74 a7.5 7.5 0 1 0 15 0 a7.5 7.5 0 1 0 -15 0zM989.94 721.74 a7.5 7.5 0 1 0 15 0 a7.5 7.5 0 1 0 -15 0zM924.98 759.24 a7.5 7.5 0 1 0 15 0 a7.5 7.5 0 1 0 -15 0zM860.03 721.74 a7.5 7.5 0 1 0 15 0 a7.5 7.5 0 1 0 -15 0zM860.03 646.74 a7.5 7.5 0 1 0 15 0 a7.5 7.5 0 1 0 -15 0zM924.98 834.24 a7.5 7.5 0 1 0 15 0 a7.5 7.5 0 1 0 -15 0zM989.94 871.74 a7.5 7.5 0 1 0 15 0 a7.5 7.5 0 1 0 -15 0zM989.94 946.74 a7.5 7.5 0 1 0 15 0 a7.5 7.5 0 1 0 -15 0zM924.98 984.24 a7.5 7.5 0 1 0 15 0 a7.5 7.5 0 1 0 -15 0zM924.98 1059.24 a7.5 7.5 0 1 0 15 0 a7.5 7.5 0 1 0 -15 0zM989.94 1096.74 a7.5 7.5 0 1 0 15 0 a7.5 7.5 0 1 0 -15 0zM989.94 1171.74 a7.5 7.5 0 1 0 15 0 a7.5 7.5 0 1 0 -15 0zM924.98 1209.24 a7.5 7.5 0 1 0 15 0 a7.5 7.5 0 1 0 -15 0zM860.03 1171.74 a7.5 7.5 0 1 0 15 0 a7.5 7.5 0 1 0 -15 0zM860.03 1096.74 a7.5 7.5 0 1 0 15 0 a7.5 7.5 0 1 0 -15 0zM1119.84 46.74 a7.5 7.5 0 1 0 15 0 a7.5 7.5 0 1 0 -15 0zM1184.8 84.24 a7.5 7.5 0 1 0 15 0 a7.5 7.5 0 1 0 -15 0zM1184.8 159.24 a7.5 7.5 0 1 0 15 0 a7.5 7.5 0 1 0 -15 0zM1119.84 196.74 a7.5 7.5 0 1 0 15 0 a7.5 7.5 0 1 0 -15 0zM1054.89 159.24 a7.5 7.5 0 1 0 15 0 a7.5 7.5 0 1 0 -15 0zM1054.89 84.24 a7.5 7.5 0 1 0 15 0 a7.5 7.5 0 1 0 -15 0zM1119.84 271.74 a7.5 7.5 0 1 0 15 0 a7.5 7.5 0 1 0 -15 0zM1054.89 309.24 a7.5 7.5 0 1 0 15 0 a7.5 7.5 0 1 0 -15 0zM989.94 271.74 a7.5 7.5 0 1 0 15 0 a7.5 7.5 0 1 0 -15 0zM989.94 196.74 a7.5 7.5 0 1 0 15 0 a7.5 7.5 0 1 0 -15 0zM1184.8 309.24 a7.5 7.5 0 1 0 15 0 a7.5 7.5 0 1 0 -15 0zM1184.8 384.24 a7.5 7.5 0 1 0 15 0 a7.5 7.5 0 1 0 -15 0zM1119.84 421.74 a7.5 7.5 0 1 0 15 0 a7.5 7.5 0 1 0 -15 0zM1054.89 384.24 a7.5 7.5 0 1 0 15 0 a7.5 7.5 0 1 0 -15 0zM1119.84 496.74 a7.5 7.5 0 1 0 15 0 a7.5 7.5 0 1 0 -15 0zM1184.8 534.24 a7.5 7.5 0 1 0 15 0 a7.5 7.5 0 1 0 -15 0zM1184.8 609.24 a7.5 7.5 0 1 0 15 0 a7.5 7.5 0 1 0 -15 0zM1119.84 646.74 a7.5 7.5 0 1 0 15 0 a7.5 7.5 0 1 0 -15 0zM1054.89 609.24 a7.5 7.5 0 1 0 15 0 a7.5 7.5 0 1 0 -15 0zM1054.89 534.24 a7.5 7.5 0 1 0 15 0 a7.5 7.5 0 1 0 -15 0zM1054.89 1059.24 a7.5 7.5 0 1 0 15 0 a7.5 7.5 0 1 0 -15 0zM1119.84 1096.74 a7.5 7.5 0 1 0 15 0 a7.5 7.5 0 1 0 -15 0zM1119.84 1171.74 a7.5 7.5 0 1 0 15 0 a7.5 7.5 0 1 0 -15 0zM1054.89 1209.24 a7.5 7.5 0 1 0 15 0 a7.5 7.5 0 1 0 -15 0zM1184.8 -65.76 a7.5 7.5 0 1 0 15 0 a7.5 7.5 0 1 0 -15 0zM1249.75 -28.26 a7.5 7.5 0 1 0 15 0 a7.5 7.5 0 1 0 -15 0zM1249.75 46.74 a7.5 7.5 0 1 0 15 0 a7.5 7.5 0 1 0 -15 0zM1119.84 -28.26 a7.5 7.5 0 1 0 15 0 a7.5 7.5 0 1 0 -15 0zM1249.75 196.74 a7.5 7.5 0 1 0 15 0 a7.5 7.5 0 1 0 -15 0zM1249.75 271.74 a7.5 7.5 0 1 0 15 0 a7.5 7.5 0 1 0 -15 0zM1249.75 421.74 a7.5 7.5 0 1 0 15 0 a7.5 7.5 0 1 0 -15 0zM1249.75 496.74 a7.5 7.5 0 1 0 15 0 a7.5 7.5 0 1 0 -15 0zM1184.8 834.24 a7.5 7.5 0 1 0 15 0 a7.5 7.5 0 1 0 -15 0zM1249.75 871.74 a7.5 7.5 0 1 0 15 0 a7.5 7.5 0 1 0 -15 0zM1249.75 946.74 a7.5 7.5 0 1 0 15 0 a7.5 7.5 0 1 0 -15 0zM1184.8 984.24 a7.5 7.5 0 1 0 15 0 a7.5 7.5 0 1 0 -15 0zM1119.84 946.74 a7.5 7.5 0 1 0 15 0 a7.5 7.5 0 1 0 -15 0zM1119.84 871.74 a7.5 7.5 0 1 0 15 0 a7.5 7.5 0 1 0 -15 0zM1379.66 46.74 a7.5 7.5 0 1 0 15 0 a7.5 7.5 0 1 0 -15 0zM1444.61 84.24 a7.5 7.5 0 1 0 15 0 a7.5 7.5 0 1 0 -15 0zM1444.61 159.24 a7.5 7.5 0 1 0 15 0 a7.5 7.5 0 1 0 -15 0zM1379.66 196.74 a7.5 7.5 0 1 0 15 0 a7.5 7.5 0 1 0 -15 0zM1314.71 159.24 a7.5 7.5 0 1 0 15 0 a7.5 7.5 0 1 0 -15 0zM1314.71 84.24 a7.5 7.5 0 1 0 15 0 a7.5 7.5 0 1 0 -15 0zM1379.66 721.74 a7.5 7.5 0 1 0 15 0 a7.5 7.5 0 1 0 -15 0zM1444.61 759.24 a7.5 7.5 0 1 0 15 0 a7.5 7.5 0 1 0 -15 0zM1444.61 834.24 a7.5 7.5 0 1 0 15 0 a7.5 7.5 0 1 0 -15 0zM1379.66 871.74 a7.5 7.5 0 1 0 15 0 a7.5 7.5 0 1 0 -15 0zM1314.71 834.24 a7.5 7.5 0 1 0 15 0 a7.5 7.5 0 1 0 -15 0zM1314.71 759.24 a7.5 7.5 0 1 0 15 0 a7.5 7.5 0 1 0 -15 0zM1444.61 384.24 a7.5 7.5 0 1 0 15 0 a7.5 7.5 0 1 0 -15 0zM1509.57 421.74 a7.5 7.5 0 1 0 15 0 a7.5 7.5 0 1 0 -15 0zM1509.57 496.74 a7.5 7.5 0 1 0 15 0 a7.5 7.5 0 1 0 -15 0zM1444.61 534.24 a7.5 7.5 0 1 0 15 0 a7.5 7.5 0 1 0 -15 0zM1379.66 496.74 a7.5 7.5 0 1 0 15 0 a7.5 7.5 0 1 0 -15 0zM1379.66 421.74 a7.5 7.5 0 1 0 15 0 a7.5 7.5 0 1 0 -15 0zM1574.52 534.24 a7.5 7.5 0 1 0 15 0 a7.5 7.5 0 1 0 -15 0zM1574.52 609.24 a7.5 7.5 0 1 0 15 0 a7.5 7.5 0 1 0 -15 0zM1509.57 646.74 a7.5 7.5 0 1 0 15 0 a7.5 7.5 0 1 0 -15 0zM1444.61 609.24 a7.5 7.5 0 1 0 15 0 a7.5 7.5 0 1 0 -15 0zM1509.57 721.74 a7.5 7.5 0 1 0 15 0 a7.5 7.5 0 1 0 -15 0zM1574.52 759.24 a7.5 7.5 0 1 0 15 0 a7.5 7.5 0 1 0 -15 0zM1574.52 834.24 a7.5 7.5 0 1 0 15 0 a7.5 7.5 0 1 0 -15 0zM1509.57 871.74 a7.5 7.5 0 1 0 15 0 a7.5 7.5 0 1 0 -15 0zM1509.57 946.74 a7.5 7.5 0 1 0 15 0 a7.5 7.5 0 1 0 -15 0zM1574.52 984.24 a7.5 7.5 0 1 0 15 0 a7.5 7.5 0 1 0 -15 0zM1574.52 1059.24 a7.5 7.5 0 1 0 15 0 a7.5 7.5 0 1 0 -15 0zM1509.57 1096.74 a7.5 7.5 0 1 0 15 0 a7.5 7.5 0 1 0 -15 0zM1444.61 1059.24 a7.5 7.5 0 1 0 15 0 a7.5 7.5 0 1 0 -15 0zM1444.61 984.24 a7.5 7.5 0 1 0 15 0 a7.5 7.5 0 1 0 -15 0zM1509.57 1171.74 a7.5 7.5 0 1 0 15 0 a7.5 7.5 0 1 0 -15 0zM1444.61 1209.24 a7.5 7.5 0 1 0 15 0 a7.5 7.5 0 1 0 -15 0zM1379.66 1171.74 a7.5 7.5 0 1 0 15 0 a7.5 7.5 0 1 0 -15 0zM1379.66 1096.74 a7.5 7.5 0 1 0 15 0 a7.5 7.5 0 1 0 -15 0zM1574.52 159.24 a7.5 7.5 0 1 0 15 0 a7.5 7.5 0 1 0 -15 0zM1639.47 196.74 a7.5 7.5 0 1 0 15 0 a7.5 7.5 0 1 0 -15 0zM1639.47 271.74 a7.5 7.5 0 1 0 15 0 a7.5 7.5 0 1 0 -15 0zM1574.52 309.24 a7.5 7.5 0 1 0 15 0 a7.5 7.5 0 1 0 -15 0zM1509.57 271.74 a7.5 7.5 0 1 0 15 0 a7.5 7.5 0 1 0 -15 0zM1509.57 196.74 a7.5 7.5 0 1 0 15 0 a7.5 7.5 0 1 0 -15 0zM1704.43 309.24 a7.5 7.5 0 1 0 15 0 a7.5 7.5 0 1 0 -15 0zM1704.43 384.24 a7.5 7.5 0 1 0 15 0 a7.5 7.5 0 1 0 -15 0zM1639.47 421.74 a7.5 7.5 0 1 0 15 0 a7.5 7.5 0 1 0 -15 0zM1574.52 384.24 a7.5 7.5 0 1 0 15 0 a7.5 7.5 0 1 0 -15 0zM1639.47 721.74 a7.5 7.5 0 1 0 15 0 a7.5 7.5 0 1 0 -15 0zM1704.43 759.24 a7.5 7.5 0 1 0 15 0 a7.5 7.5 0 1 0 -15 0zM1704.43 834.24 a7.5 7.5 0 1 0 15 0 a7.5 7.5 0 1 0 -15 0zM1639.47 871.74 a7.5 7.5 0 1 0 15 0 a7.5 7.5 0 1 0 -15 0zM1639.47 946.74 a7.5 7.5 0 1 0 15 0 a7.5 7.5 0 1 0 -15 0zM1704.43 984.24 a7.5 7.5 0 1 0 15 0 a7.5 7.5 0 1 0 -15 0zM1704.43 1059.24 a7.5 7.5 0 1 0 15 0 a7.5 7.5 0 1 0 -15 0zM1639.47 1096.74 a7.5 7.5 0 1 0 15 0 a7.5 7.5 0 1 0 -15 0zM1769.38 46.74 a7.5 7.5 0 1 0 15 0 a7.5 7.5 0 1 0 -15 0zM1834.33 84.24 a7.5 7.5 0 1 0 15 0 a7.5 7.5 0 1 0 -15 0zM1834.33 159.24 a7.5 7.5 0 1 0 15 0 a7.5 7.5 0 1 0 -15 0zM1769.38 196.74 a7.5 7.5 0 1 0 15 0 a7.5 7.5 0 1 0 -15 0zM1704.43 159.24 a7.5 7.5 0 1 0 15 0 a7.5 7.5 0 1 0 -15 0zM1704.43 84.24 a7.5 7.5 0 1 0 15 0 a7.5 7.5 0 1 0 -15 0zM1769.38 271.74 a7.5 7.5 0 1 0 15 0 a7.5 7.5 0 1 0 -15 0zM1769.38 946.74 a7.5 7.5 0 1 0 15 0 a7.5 7.5 0 1 0 -15 0zM1834.33 984.24 a7.5 7.5 0 1 0 15 0 a7.5 7.5 0 1 0 -15 0zM1834.33 1059.24 a7.5 7.5 0 1 0 15 0 a7.5 7.5 0 1 0 -15 0zM1769.38 1096.74 a7.5 7.5 0 1 0 15 0 a7.5 7.5 0 1 0 -15 0zM1899.29 496.74 a7.5 7.5 0 1 0 15 0 a7.5 7.5 0 1 0 -15 0zM1964.24 534.24 a7.5 7.5 0 1 0 15 0 a7.5 7.5 0 1 0 -15 0zM1964.24 609.24 a7.5 7.5 0 1 0 15 0 a7.5 7.5 0 1 0 -15 0zM1899.29 646.74 a7.5 7.5 0 1 0 15 0 a7.5 7.5 0 1 0 -15 0zM1834.34 609.24 a7.5 7.5 0 1 0 15 0 a7.5 7.5 0 1 0 -15 0zM1834.34 534.24 a7.5 7.5 0 1 0 15 0 a7.5 7.5 0 1 0 -15 0zM1834.34 834.24 a7.5 7.5 0 1 0 15 0 a7.5 7.5 0 1 0 -15 0zM1899.29 871.74 a7.5 7.5 0 1 0 15 0 a7.5 7.5 0 1 0 -15 0zM1899.29 946.74 a7.5 7.5 0 1 0 15 0 a7.5 7.5 0 1 0 -15 0zM1834.34 984.24 a7.5 7.5 0 1 0 15 0 a7.5 7.5 0 1 0 -15 0zM1769.38 871.74 a7.5 7.5 0 1 0 15 0 a7.5 7.5 0 1 0 -15 0z" fill="rgba(84, 64, 1, 1)"></path><path d="M117.06 -7.16L226.18 55.84L226.18 181.84L117.06 244.84L7.94 181.84L7.94 55.84zM226.18 937.84L335.3 1000.84L335.3 1126.84L226.18 1189.84L117.06 1126.84L117.06 1000.84zM335.3 1126.84L444.43 1189.84L444.43 1315.84L335.3 1378.84L226.18 1315.84L226.18 1189.84zM771.79 -7.16L880.92 55.84L880.92 181.84L771.79 244.84L662.67 181.84L662.67 55.84zM880.92 181.84L990.04 244.84L990.04 370.84L880.92 433.84L771.79 370.84L771.79 244.84zM771.79 370.84L880.92 433.84L880.92 559.84L771.79 622.84L662.67 559.84L662.67 433.84zM880.92 559.84L990.04 622.84L990.04 748.84L880.92 811.84L771.79 748.84L771.79 622.84zM771.79 748.84L880.92 811.84L880.92 937.84L771.79 1000.84L662.67 937.84L662.67 811.84zM1099.16 937.84L1208.28 1000.84L1208.28 1126.84L1099.16 1189.84L990.04 1126.84L990.04 1000.84zM1208.28 -7.16L1317.41 55.84L1317.41 181.84L1208.28 244.84L1099.16 181.84L1099.16 55.84zM1317.41 559.84L1426.53 622.84L1426.53 748.84L1317.41 811.84L1208.28 748.84L1208.28 622.84zM1208.28 748.84L1317.41 811.84L1317.41 937.84L1208.28 1000.84L1099.16 937.84L1099.16 811.84zM1535.65 937.84L1644.77 1000.84L1644.77 1126.84L1535.65 1189.84L1426.53 1126.84L1426.53 1000.84zM1753.89 181.84L1863.02 244.84L1863.02 370.84L1753.89 433.84L1644.77 370.84L1644.77 244.84zM1644.77 370.84L1753.89 433.84L1753.89 559.84L1644.77 622.84L1535.65 559.84L1535.65 433.84zM1972.14 181.84L2081.26 244.84L2081.26 370.84L1972.14 433.84L1863.02 370.84L1863.02 244.84z" stroke="rgba(255, 202, 40, 0.93)" stroke-width="2"></path></g><defs><mask id="SvgjsMask1102"><rect width="1920" height="1080" fill="#ffffff"></rect></mask></defs></svg>