<svg xmlns="http://www.w3.org/2000/svg" version="1.1" xmlns:xlink="http://www.w3.org/1999/xlink" xmlns:svgjs="http://svgjs.dev/svgjs" width="768" height="1080" preserveAspectRatio="none" viewBox="0 0 768 1080"><g mask="url(&quot;#SvgjsMask1162&quot;)" fill="none"><rect width="768" height="1080" x="0" y="0" fill="rgba(15, 15, 15, 1)"></rect><path d="M110.33 307.01L175.29 344.51L175.29 419.51L110.33 457.01L45.38 419.51L45.38 344.51zM45.38 419.51L110.33 457.01L110.33 532.01L45.38 569.51L-19.57 532.01L-19.57 457.01zM45.38 644.51L110.33 682.01L110.33 757.01L45.38 794.51L-19.57 757.01L-19.57 682.01zM110.33 757.01L175.29 794.51L175.29 869.51L110.33 907.01L45.38 869.51L45.38 794.51zM45.38 869.51L110.33 907.01L110.33 982.01L45.38 1019.51L-19.57 982.01L-19.57 907.01zM240.24 532.01L305.19 569.51L305.19 644.51L240.24 682.01L175.29 644.51L175.29 569.51zM175.29 644.51L240.24 682.01L240.24 757.01L175.29 794.51L110.33 757.01L110.33 682.01zM240.24 757.01L305.19 794.51L305.19 869.51L240.24 907.01L175.29 869.51L175.29 794.51zM305.19 194.51L370.15 232.01L370.15 307.01L305.19 344.51L240.24 307.01L240.24 232.01zM370.15 982.01L435.1 1019.51L435.1 1094.51L370.15 1132.01L305.19 1094.51L305.19 1019.51zM500.06 82.01L565.01 119.51L565.01 194.51L500.06 232.01L435.1 194.51L435.1 119.51zM435.1 419.51L500.06 457.01L500.06 532.01L435.1 569.51L370.15 532.01L370.15 457.01zM435.1 869.51L500.06 907.01L500.06 982.01L435.1 1019.51L370.15 982.01L370.15 907.01zM565.01 -30.49L629.96 7.01L629.96 82.01L565.01 119.51L500.06 82.01L500.06 7.01zM629.96 757.01L694.92 794.51L694.92 869.51L629.96 907.01L565.01 869.51L565.01 794.51zM565.01 1094.51L629.96 1132.01L629.96 1207.01L565.01 1244.51L500.06 1207.01L500.06 1132.01zM694.92 -30.49L759.87 7.01L759.87 82.01L694.92 119.51L629.96 82.01L629.96 7.01zM759.87 82.01L824.83 119.51L824.83 194.51L759.87 232.01L694.92 194.51L694.92 119.51zM759.87 532.01L824.83 569.51L824.83 644.51L759.87 682.01L694.92 644.51L694.92 569.51zM694.92 869.51L759.87 907.01L759.87 982.01L694.92 1019.51L629.96 982.01L629.96 907.01z" stroke="rgba(84, 64, 1, 1)" stroke-width="2"></path><path d="M102.83 307.01 a7.5 7.5 0 1 0 15 0 a7.5 7.5 0 1 0 -15 0zM167.79 344.51 a7.5 7.5 0 1 0 15 0 a7.5 7.5 0 1 0 -15 0zM167.79 419.51 a7.5 7.5 0 1 0 15 0 a7.5 7.5 0 1 0 -15 0zM102.83 457.01 a7.5 7.5 0 1 0 15 0 a7.5 7.5 0 1 0 -15 0zM37.88 419.51 a7.5 7.5 0 1 0 15 0 a7.5 7.5 0 1 0 -15 0zM37.88 344.51 a7.5 7.5 0 1 0 15 0 a7.5 7.5 0 1 0 -15 0zM102.83 532.01 a7.5 7.5 0 1 0 15 0 a7.5 7.5 0 1 0 -15 0zM37.88 569.51 a7.5 7.5 0 1 0 15 0 a7.5 7.5 0 1 0 -15 0zM-27.07 532.01 a7.5 7.5 0 1 0 15 0 a7.5 7.5 0 1 0 -15 0zM-27.07 457.01 a7.5 7.5 0 1 0 15 0 a7.5 7.5 0 1 0 -15 0zM37.88 644.51 a7.5 7.5 0 1 0 15 0 a7.5 7.5 0 1 0 -15 0zM102.83 682.01 a7.5 7.5 0 1 0 15 0 a7.5 7.5 0 1 0 -15 0zM102.83 757.01 a7.5 7.5 0 1 0 15 0 a7.5 7.5 0 1 0 -15 0zM37.88 794.51 a7.5 7.5 0 1 0 15 0 a7.5 7.5 0 1 0 -15 0zM-27.07 757.01 a7.5 7.5 0 1 0 15 0 a7.5 7.5 0 1 0 -15 0zM-27.07 682.01 a7.5 7.5 0 1 0 15 0 a7.5 7.5 0 1 0 -15 0zM167.79 794.51 a7.5 7.5 0 1 0 15 0 a7.5 7.5 0 1 0 -15 0zM167.79 869.51 a7.5 7.5 0 1 0 15 0 a7.5 7.5 0 1 0 -15 0zM102.83 907.01 a7.5 7.5 0 1 0 15 0 a7.5 7.5 0 1 0 -15 0zM37.88 869.51 a7.5 7.5 0 1 0 15 0 a7.5 7.5 0 1 0 -15 0zM102.83 982.01 a7.5 7.5 0 1 0 15 0 a7.5 7.5 0 1 0 -15 0zM37.88 1019.51 a7.5 7.5 0 1 0 15 0 a7.5 7.5 0 1 0 -15 0zM-27.07 982.01 a7.5 7.5 0 1 0 15 0 a7.5 7.5 0 1 0 -15 0zM-27.07 907.01 a7.5 7.5 0 1 0 15 0 a7.5 7.5 0 1 0 -15 0zM232.74 532.01 a7.5 7.5 0 1 0 15 0 a7.5 7.5 0 1 0 -15 0zM297.69 569.51 a7.5 7.5 0 1 0 15 0 a7.5 7.5 0 1 0 -15 0zM297.69 644.51 a7.5 7.5 0 1 0 15 0 a7.5 7.5 0 1 0 -15 0zM232.74 682.01 a7.5 7.5 0 1 0 15 0 a7.5 7.5 0 1 0 -15 0zM167.79 644.51 a7.5 7.5 0 1 0 15 0 a7.5 7.5 0 1 0 -15 0zM167.79 569.51 a7.5 7.5 0 1 0 15 0 a7.5 7.5 0 1 0 -15 0zM232.74 757.01 a7.5 7.5 0 1 0 15 0 a7.5 7.5 0 1 0 -15 0zM297.69 794.51 a7.5 7.5 0 1 0 15 0 a7.5 7.5 0 1 0 -15 0zM297.69 869.51 a7.5 7.5 0 1 0 15 0 a7.5 7.5 0 1 0 -15 0zM232.74 907.01 a7.5 7.5 0 1 0 15 0 a7.5 7.5 0 1 0 -15 0zM297.69 194.51 a7.5 7.5 0 1 0 15 0 a7.5 7.5 0 1 0 -15 0zM362.65 232.01 a7.5 7.5 0 1 0 15 0 a7.5 7.5 0 1 0 -15 0zM362.65 307.01 a7.5 7.5 0 1 0 15 0 a7.5 7.5 0 1 0 -15 0zM297.69 344.51 a7.5 7.5 0 1 0 15 0 a7.5 7.5 0 1 0 -15 0zM232.74 307.01 a7.5 7.5 0 1 0 15 0 a7.5 7.5 0 1 0 -15 0zM232.74 232.01 a7.5 7.5 0 1 0 15 0 a7.5 7.5 0 1 0 -15 0zM362.65 982.01 a7.5 7.5 0 1 0 15 0 a7.5 7.5 0 1 0 -15 0zM427.6 1019.51 a7.5 7.5 0 1 0 15 0 a7.5 7.5 0 1 0 -15 0zM427.6 1094.51 a7.5 7.5 0 1 0 15 0 a7.5 7.5 0 1 0 -15 0zM362.65 1132.01 a7.5 7.5 0 1 0 15 0 a7.5 7.5 0 1 0 -15 0zM297.69 1094.51 a7.5 7.5 0 1 0 15 0 a7.5 7.5 0 1 0 -15 0zM297.69 1019.51 a7.5 7.5 0 1 0 15 0 a7.5 7.5 0 1 0 -15 0zM492.56 82.01 a7.5 7.5 0 1 0 15 0 a7.5 7.5 0 1 0 -15 0zM557.51 119.51 a7.5 7.5 0 1 0 15 0 a7.5 7.5 0 1 0 -15 0zM557.51 194.51 a7.5 7.5 0 1 0 15 0 a7.5 7.5 0 1 0 -15 0zM492.56 232.01 a7.5 7.5 0 1 0 15 0 a7.5 7.5 0 1 0 -15 0zM427.6 194.51 a7.5 7.5 0 1 0 15 0 a7.5 7.5 0 1 0 -15 0zM427.6 119.51 a7.5 7.5 0 1 0 15 0 a7.5 7.5 0 1 0 -15 0zM427.6 419.51 a7.5 7.5 0 1 0 15 0 a7.5 7.5 0 1 0 -15 0zM492.56 457.01 a7.5 7.5 0 1 0 15 0 a7.5 7.5 0 1 0 -15 0zM492.56 532.01 a7.5 7.5 0 1 0 15 0 a7.5 7.5 0 1 0 -15 0zM427.6 569.51 a7.5 7.5 0 1 0 15 0 a7.5 7.5 0 1 0 -15 0zM362.65 532.01 a7.5 7.5 0 1 0 15 0 a7.5 7.5 0 1 0 -15 0zM362.65 457.01 a7.5 7.5 0 1 0 15 0 a7.5 7.5 0 1 0 -15 0zM427.6 869.51 a7.5 7.5 0 1 0 15 0 a7.5 7.5 0 1 0 -15 0zM492.56 907.01 a7.5 7.5 0 1 0 15 0 a7.5 7.5 0 1 0 -15 0zM492.56 982.01 a7.5 7.5 0 1 0 15 0 a7.5 7.5 0 1 0 -15 0zM362.65 907.01 a7.5 7.5 0 1 0 15 0 a7.5 7.5 0 1 0 -15 0zM557.51 -30.49 a7.5 7.5 0 1 0 15 0 a7.5 7.5 0 1 0 -15 0zM622.46 7.01 a7.5 7.5 0 1 0 15 0 a7.5 7.5 0 1 0 -15 0zM622.46 82.01 a7.5 7.5 0 1 0 15 0 a7.5 7.5 0 1 0 -15 0zM492.56 7.01 a7.5 7.5 0 1 0 15 0 a7.5 7.5 0 1 0 -15 0zM622.46 757.01 a7.5 7.5 0 1 0 15 0 a7.5 7.5 0 1 0 -15 0zM687.42 794.51 a7.5 7.5 0 1 0 15 0 a7.5 7.5 0 1 0 -15 0zM687.42 869.51 a7.5 7.5 0 1 0 15 0 a7.5 7.5 0 1 0 -15 0zM622.46 907.01 a7.5 7.5 0 1 0 15 0 a7.5 7.5 0 1 0 -15 0zM557.51 869.51 a7.5 7.5 0 1 0 15 0 a7.5 7.5 0 1 0 -15 0zM557.51 794.51 a7.5 7.5 0 1 0 15 0 a7.5 7.5 0 1 0 -15 0zM557.51 1094.51 a7.5 7.5 0 1 0 15 0 a7.5 7.5 0 1 0 -15 0zM622.46 1132.01 a7.5 7.5 0 1 0 15 0 a7.5 7.5 0 1 0 -15 0zM622.46 1207.01 a7.5 7.5 0 1 0 15 0 a7.5 7.5 0 1 0 -15 0zM557.51 1244.51 a7.5 7.5 0 1 0 15 0 a7.5 7.5 0 1 0 -15 0zM492.56 1207.01 a7.5 7.5 0 1 0 15 0 a7.5 7.5 0 1 0 -15 0zM492.56 1132.01 a7.5 7.5 0 1 0 15 0 a7.5 7.5 0 1 0 -15 0zM687.42 -30.49 a7.5 7.5 0 1 0 15 0 a7.5 7.5 0 1 0 -15 0zM752.37 7.01 a7.5 7.5 0 1 0 15 0 a7.5 7.5 0 1 0 -15 0zM752.37 82.01 a7.5 7.5 0 1 0 15 0 a7.5 7.5 0 1 0 -15 0zM687.42 119.51 a7.5 7.5 0 1 0 15 0 a7.5 7.5 0 1 0 -15 0zM817.33 119.51 a7.5 7.5 0 1 0 15 0 a7.5 7.5 0 1 0 -15 0zM817.33 194.51 a7.5 7.5 0 1 0 15 0 a7.5 7.5 0 1 0 -15 0zM752.37 232.01 a7.5 7.5 0 1 0 15 0 a7.5 7.5 0 1 0 -15 0zM687.42 194.51 a7.5 7.5 0 1 0 15 0 a7.5 7.5 0 1 0 -15 0zM752.37 532.01 a7.5 7.5 0 1 0 15 0 a7.5 7.5 0 1 0 -15 0zM817.33 569.51 a7.5 7.5 0 1 0 15 0 a7.5 7.5 0 1 0 -15 0zM817.33 644.51 a7.5 7.5 0 1 0 15 0 a7.5 7.5 0 1 0 -15 0zM752.37 682.01 a7.5 7.5 0 1 0 15 0 a7.5 7.5 0 1 0 -15 0zM687.42 644.51 a7.5 7.5 0 1 0 15 0 a7.5 7.5 0 1 0 -15 0zM687.42 569.51 a7.5 7.5 0 1 0 15 0 a7.5 7.5 0 1 0 -15 0zM752.37 907.01 a7.5 7.5 0 1 0 15 0 a7.5 7.5 0 1 0 -15 0zM752.37 982.01 a7.5 7.5 0 1 0 15 0 a7.5 7.5 0 1 0 -15 0zM687.42 1019.51 a7.5 7.5 0 1 0 15 0 a7.5 7.5 0 1 0 -15 0zM622.46 982.01 a7.5 7.5 0 1 0 15 0 a7.5 7.5 0 1 0 -15 0z" fill="rgba(84, 64, 1, 1)"></path><path d="M53.59 -28.32L123.74 12.18L123.74 93.18L53.59 133.68L-16.56 93.18L-16.56 12.18zM53.59 214.68L123.74 255.18L123.74 336.18L53.59 376.68L-16.56 336.18L-16.56 255.18zM123.74 336.18L193.89 376.68L193.89 457.68L123.74 498.18L53.59 457.68L53.59 376.68zM123.74 579.18L193.89 619.68L193.89 700.68L123.74 741.18L53.59 700.68L53.59 619.68zM53.59 700.68L123.74 741.18L123.74 822.18L53.59 862.68L-16.56 822.18L-16.56 741.18zM123.74 1065.18L193.89 1105.68L193.89 1186.68L123.74 1227.18L53.59 1186.68L53.59 1105.68zM264.04 93.18L334.19 133.68L334.19 214.68L264.04 255.18L193.89 214.68L193.89 133.68zM193.89 214.68L264.04 255.18L264.04 336.18L193.89 376.68L123.74 336.18L123.74 255.18zM264.04 336.18L334.19 376.68L334.19 457.68L264.04 498.18L193.89 457.68L193.89 376.68zM193.89 457.68L264.04 498.18L264.04 579.18L193.89 619.68L123.74 579.18L123.74 498.18zM264.04 822.18L334.19 862.68L334.19 943.68L264.04 984.18L193.89 943.68L193.89 862.68zM264.04 1065.18L334.19 1105.68L334.19 1186.68L264.04 1227.18L193.89 1186.68L193.89 1105.68zM334.19 214.68L404.34 255.18L404.34 336.18L334.19 376.68L264.04 336.18L264.04 255.18zM334.19 457.68L404.34 498.18L404.34 579.18L334.19 619.68L264.04 579.18L264.04 498.18zM404.34 579.18L474.49 619.68L474.49 700.68L404.34 741.18L334.19 700.68L334.19 619.68zM334.19 943.68L404.34 984.18L404.34 1065.18L334.19 1105.68L264.04 1065.18L264.04 984.18zM404.34 1065.18L474.49 1105.68L474.49 1186.68L404.34 1227.18L334.19 1186.68L334.19 1105.68zM474.49 -28.32L544.64 12.18L544.64 93.18L474.49 133.68L404.34 93.18L404.34 12.18zM544.64 93.18L614.79 133.68L614.79 214.68L544.64 255.18L474.49 214.68L474.49 133.68zM544.64 579.18L614.79 619.68L614.79 700.68L544.64 741.18L474.49 700.68L474.49 619.68zM544.64 822.18L614.79 862.68L614.79 943.68L544.64 984.18L474.49 943.68L474.49 862.68zM544.64 1065.18L614.79 1105.68L614.79 1186.68L544.64 1227.18L474.49 1186.68L474.49 1105.68zM614.79 -28.32L684.94 12.18L684.94 93.18L614.79 133.68L544.64 93.18L544.64 12.18zM684.94 93.18L755.09 133.68L755.09 214.68L684.94 255.18L614.79 214.68L614.79 133.68zM614.79 214.68L684.94 255.18L684.94 336.18L614.79 376.68L544.64 336.18L544.64 255.18zM614.79 457.68L684.94 498.18L684.94 579.18L614.79 619.68L544.64 579.18L544.64 498.18zM684.94 579.18L755.09 619.68L755.09 700.68L684.94 741.18L614.79 700.68L614.79 619.68zM684.94 1065.18L755.09 1105.68L755.09 1186.68L684.94 1227.18L614.79 1186.68L614.79 1105.68zM755.09 214.68L825.24 255.18L825.24 336.18L755.09 376.68L684.94 336.18L684.94 255.18zM825.24 336.18L895.39 376.68L895.39 457.68L825.24 498.18L755.09 457.68L755.09 376.68zM755.09 700.68L825.24 741.18L825.24 822.18L755.09 862.68L684.94 822.18L684.94 741.18zM755.09 943.68L825.24 984.18L825.24 1065.18L755.09 1105.68L684.94 1065.18L684.94 984.18z" stroke="rgba(255, 202, 40, 0.93)" stroke-width="2"></path></g><defs><mask id="SvgjsMask1162"><rect width="768" height="1080" fill="#ffffff"></rect></mask></defs></svg>