<svg xmlns="http://www.w3.org/2000/svg" version="1.1" xmlns:xlink="http://www.w3.org/1999/xlink" xmlns:svgjs="http://svgjs.dev/svgjs" width="978" height="1080" preserveAspectRatio="none" viewBox="0 0 978 1080"><g mask="url(&quot;#SvgjsMask1120&quot;)" fill="none"><rect width="978" height="1080" x="0" y="0" fill="rgba(15, 15, 15, 1)"></rect><path d="M85.98 64.92L150.94 102.42L150.94 177.42L85.98 214.92L21.03 177.42L21.03 102.42zM85.98 514.92L150.94 552.42L150.94 627.42L85.98 664.92L21.03 627.42L21.03 552.42zM21.03 852.42L85.98 889.92L85.98 964.92L21.03 1002.42L-43.92 964.92L-43.92 889.92zM85.98 964.92L150.94 1002.42L150.94 1077.42L85.98 1114.92L21.03 1077.42L21.03 1002.42zM150.94 177.42L215.89 214.92L215.89 289.92L150.94 327.42L85.98 289.92L85.98 214.92zM150.94 402.42L215.89 439.92L215.89 514.92L150.94 552.42L85.98 514.92L85.98 439.92zM280.85 177.42L345.8 214.92L345.8 289.92L280.85 327.42L215.89 289.92L215.89 214.92zM280.85 402.42L345.8 439.92L345.8 514.92L280.85 552.42L215.89 514.92L215.89 439.92zM280.85 852.42L345.8 889.92L345.8 964.92L280.85 1002.42L215.89 964.92L215.89 889.92zM410.75 177.42L475.71 214.92L475.71 289.92L410.75 327.42L345.8 289.92L345.8 214.92zM475.71 514.92L540.66 552.42L540.66 627.42L475.71 664.92L410.75 627.42L410.75 552.42zM475.71 739.92L540.66 777.42L540.66 852.42L475.71 889.92L410.75 852.42L410.75 777.42zM540.66 -47.58L605.61 -10.08L605.61 64.92L540.66 102.42L475.71 64.92L475.71 -10.08zM540.66 1077.42L605.61 1114.92L605.61 1189.92L540.66 1227.42L475.71 1189.92L475.71 1114.92zM735.52 739.92L800.48 777.42L800.48 852.42L735.52 889.92L670.57 852.42L670.57 777.42zM800.47 177.42L865.43 214.92L865.43 289.92L800.47 327.42L735.52 289.92L735.52 214.92zM865.43 289.92L930.38 327.42L930.38 402.42L865.43 439.92L800.47 402.42L800.47 327.42zM800.47 627.42L865.43 664.92L865.43 739.92L800.47 777.42L735.52 739.92L735.52 664.92zM800.47 1077.42L865.43 1114.92L865.43 1189.92L800.47 1227.42L735.52 1189.92L735.52 1114.92zM930.38 177.42L995.34 214.92L995.34 289.92L930.38 327.42L865.43 289.92L865.43 214.92zM930.38 402.42L995.34 439.92L995.34 514.92L930.38 552.42L865.43 514.92L865.43 439.92zM995.34 514.92L1060.29 552.42L1060.29 627.42L995.34 664.92L930.38 627.42L930.38 552.42z" stroke="rgba(84, 64, 1, 1)" stroke-width="2"></path><path d="M78.48 64.92 a7.5 7.5 0 1 0 15 0 a7.5 7.5 0 1 0 -15 0zM143.44 102.42 a7.5 7.5 0 1 0 15 0 a7.5 7.5 0 1 0 -15 0zM143.44 177.42 a7.5 7.5 0 1 0 15 0 a7.5 7.5 0 1 0 -15 0zM78.48 214.92 a7.5 7.5 0 1 0 15 0 a7.5 7.5 0 1 0 -15 0zM13.53 177.42 a7.5 7.5 0 1 0 15 0 a7.5 7.5 0 1 0 -15 0zM13.53 102.42 a7.5 7.5 0 1 0 15 0 a7.5 7.5 0 1 0 -15 0zM78.48 514.92 a7.5 7.5 0 1 0 15 0 a7.5 7.5 0 1 0 -15 0zM143.44 552.42 a7.5 7.5 0 1 0 15 0 a7.5 7.5 0 1 0 -15 0zM143.44 627.42 a7.5 7.5 0 1 0 15 0 a7.5 7.5 0 1 0 -15 0zM78.48 664.92 a7.5 7.5 0 1 0 15 0 a7.5 7.5 0 1 0 -15 0zM13.53 627.42 a7.5 7.5 0 1 0 15 0 a7.5 7.5 0 1 0 -15 0zM13.53 552.42 a7.5 7.5 0 1 0 15 0 a7.5 7.5 0 1 0 -15 0zM13.53 852.42 a7.5 7.5 0 1 0 15 0 a7.5 7.5 0 1 0 -15 0zM78.48 889.92 a7.5 7.5 0 1 0 15 0 a7.5 7.5 0 1 0 -15 0zM78.48 964.92 a7.5 7.5 0 1 0 15 0 a7.5 7.5 0 1 0 -15 0zM13.53 1002.42 a7.5 7.5 0 1 0 15 0 a7.5 7.5 0 1 0 -15 0zM-51.42 964.92 a7.5 7.5 0 1 0 15 0 a7.5 7.5 0 1 0 -15 0zM-51.42 889.92 a7.5 7.5 0 1 0 15 0 a7.5 7.5 0 1 0 -15 0zM143.44 1002.42 a7.5 7.5 0 1 0 15 0 a7.5 7.5 0 1 0 -15 0zM143.44 1077.42 a7.5 7.5 0 1 0 15 0 a7.5 7.5 0 1 0 -15 0zM78.48 1114.92 a7.5 7.5 0 1 0 15 0 a7.5 7.5 0 1 0 -15 0zM13.53 1077.42 a7.5 7.5 0 1 0 15 0 a7.5 7.5 0 1 0 -15 0zM208.39 214.92 a7.5 7.5 0 1 0 15 0 a7.5 7.5 0 1 0 -15 0zM208.39 289.92 a7.5 7.5 0 1 0 15 0 a7.5 7.5 0 1 0 -15 0zM143.44 327.42 a7.5 7.5 0 1 0 15 0 a7.5 7.5 0 1 0 -15 0zM78.48 289.92 a7.5 7.5 0 1 0 15 0 a7.5 7.5 0 1 0 -15 0zM143.44 402.42 a7.5 7.5 0 1 0 15 0 a7.5 7.5 0 1 0 -15 0zM208.39 439.92 a7.5 7.5 0 1 0 15 0 a7.5 7.5 0 1 0 -15 0zM208.39 514.92 a7.5 7.5 0 1 0 15 0 a7.5 7.5 0 1 0 -15 0zM78.48 439.92 a7.5 7.5 0 1 0 15 0 a7.5 7.5 0 1 0 -15 0zM273.35 177.42 a7.5 7.5 0 1 0 15 0 a7.5 7.5 0 1 0 -15 0zM338.3 214.92 a7.5 7.5 0 1 0 15 0 a7.5 7.5 0 1 0 -15 0zM338.3 289.92 a7.5 7.5 0 1 0 15 0 a7.5 7.5 0 1 0 -15 0zM273.35 327.42 a7.5 7.5 0 1 0 15 0 a7.5 7.5 0 1 0 -15 0zM273.35 402.42 a7.5 7.5 0 1 0 15 0 a7.5 7.5 0 1 0 -15 0zM338.3 439.92 a7.5 7.5 0 1 0 15 0 a7.5 7.5 0 1 0 -15 0zM338.3 514.92 a7.5 7.5 0 1 0 15 0 a7.5 7.5 0 1 0 -15 0zM273.35 552.42 a7.5 7.5 0 1 0 15 0 a7.5 7.5 0 1 0 -15 0zM273.35 852.42 a7.5 7.5 0 1 0 15 0 a7.5 7.5 0 1 0 -15 0zM338.3 889.92 a7.5 7.5 0 1 0 15 0 a7.5 7.5 0 1 0 -15 0zM338.3 964.92 a7.5 7.5 0 1 0 15 0 a7.5 7.5 0 1 0 -15 0zM273.35 1002.42 a7.5 7.5 0 1 0 15 0 a7.5 7.5 0 1 0 -15 0zM208.39 964.92 a7.5 7.5 0 1 0 15 0 a7.5 7.5 0 1 0 -15 0zM208.39 889.92 a7.5 7.5 0 1 0 15 0 a7.5 7.5 0 1 0 -15 0zM403.25 177.42 a7.5 7.5 0 1 0 15 0 a7.5 7.5 0 1 0 -15 0zM468.21 214.92 a7.5 7.5 0 1 0 15 0 a7.5 7.5 0 1 0 -15 0zM468.21 289.92 a7.5 7.5 0 1 0 15 0 a7.5 7.5 0 1 0 -15 0zM403.25 327.42 a7.5 7.5 0 1 0 15 0 a7.5 7.5 0 1 0 -15 0zM468.21 514.92 a7.5 7.5 0 1 0 15 0 a7.5 7.5 0 1 0 -15 0zM533.16 552.42 a7.5 7.5 0 1 0 15 0 a7.5 7.5 0 1 0 -15 0zM533.16 627.42 a7.5 7.5 0 1 0 15 0 a7.5 7.5 0 1 0 -15 0zM468.21 664.92 a7.5 7.5 0 1 0 15 0 a7.5 7.5 0 1 0 -15 0zM403.25 627.42 a7.5 7.5 0 1 0 15 0 a7.5 7.5 0 1 0 -15 0zM403.25 552.42 a7.5 7.5 0 1 0 15 0 a7.5 7.5 0 1 0 -15 0zM468.21 739.92 a7.5 7.5 0 1 0 15 0 a7.5 7.5 0 1 0 -15 0zM533.16 777.42 a7.5 7.5 0 1 0 15 0 a7.5 7.5 0 1 0 -15 0zM533.16 852.42 a7.5 7.5 0 1 0 15 0 a7.5 7.5 0 1 0 -15 0zM468.21 889.92 a7.5 7.5 0 1 0 15 0 a7.5 7.5 0 1 0 -15 0zM403.25 852.42 a7.5 7.5 0 1 0 15 0 a7.5 7.5 0 1 0 -15 0zM403.25 777.42 a7.5 7.5 0 1 0 15 0 a7.5 7.5 0 1 0 -15 0zM533.16 -47.58 a7.5 7.5 0 1 0 15 0 a7.5 7.5 0 1 0 -15 0zM598.11 -10.08 a7.5 7.5 0 1 0 15 0 a7.5 7.5 0 1 0 -15 0zM598.11 64.92 a7.5 7.5 0 1 0 15 0 a7.5 7.5 0 1 0 -15 0zM533.16 102.42 a7.5 7.5 0 1 0 15 0 a7.5 7.5 0 1 0 -15 0zM468.21 64.92 a7.5 7.5 0 1 0 15 0 a7.5 7.5 0 1 0 -15 0zM468.21 -10.08 a7.5 7.5 0 1 0 15 0 a7.5 7.5 0 1 0 -15 0zM533.16 1077.42 a7.5 7.5 0 1 0 15 0 a7.5 7.5 0 1 0 -15 0zM598.11 1114.92 a7.5 7.5 0 1 0 15 0 a7.5 7.5 0 1 0 -15 0zM598.11 1189.92 a7.5 7.5 0 1 0 15 0 a7.5 7.5 0 1 0 -15 0zM533.16 1227.42 a7.5 7.5 0 1 0 15 0 a7.5 7.5 0 1 0 -15 0zM468.21 1189.92 a7.5 7.5 0 1 0 15 0 a7.5 7.5 0 1 0 -15 0zM468.21 1114.92 a7.5 7.5 0 1 0 15 0 a7.5 7.5 0 1 0 -15 0zM728.02 739.92 a7.5 7.5 0 1 0 15 0 a7.5 7.5 0 1 0 -15 0zM792.98 777.42 a7.5 7.5 0 1 0 15 0 a7.5 7.5 0 1 0 -15 0zM792.98 852.42 a7.5 7.5 0 1 0 15 0 a7.5 7.5 0 1 0 -15 0zM728.02 889.92 a7.5 7.5 0 1 0 15 0 a7.5 7.5 0 1 0 -15 0zM663.07 852.42 a7.5 7.5 0 1 0 15 0 a7.5 7.5 0 1 0 -15 0zM663.07 777.42 a7.5 7.5 0 1 0 15 0 a7.5 7.5 0 1 0 -15 0zM792.97 177.42 a7.5 7.5 0 1 0 15 0 a7.5 7.5 0 1 0 -15 0zM857.93 214.92 a7.5 7.5 0 1 0 15 0 a7.5 7.5 0 1 0 -15 0zM857.93 289.92 a7.5 7.5 0 1 0 15 0 a7.5 7.5 0 1 0 -15 0zM792.97 327.42 a7.5 7.5 0 1 0 15 0 a7.5 7.5 0 1 0 -15 0zM728.02 289.92 a7.5 7.5 0 1 0 15 0 a7.5 7.5 0 1 0 -15 0zM728.02 214.92 a7.5 7.5 0 1 0 15 0 a7.5 7.5 0 1 0 -15 0zM922.88 327.42 a7.5 7.5 0 1 0 15 0 a7.5 7.5 0 1 0 -15 0zM922.88 402.42 a7.5 7.5 0 1 0 15 0 a7.5 7.5 0 1 0 -15 0zM857.93 439.92 a7.5 7.5 0 1 0 15 0 a7.5 7.5 0 1 0 -15 0zM792.97 402.42 a7.5 7.5 0 1 0 15 0 a7.5 7.5 0 1 0 -15 0zM792.97 627.42 a7.5 7.5 0 1 0 15 0 a7.5 7.5 0 1 0 -15 0zM857.93 664.92 a7.5 7.5 0 1 0 15 0 a7.5 7.5 0 1 0 -15 0zM857.93 739.92 a7.5 7.5 0 1 0 15 0 a7.5 7.5 0 1 0 -15 0zM792.97 777.42 a7.5 7.5 0 1 0 15 0 a7.5 7.5 0 1 0 -15 0zM728.02 664.92 a7.5 7.5 0 1 0 15 0 a7.5 7.5 0 1 0 -15 0zM792.97 1077.42 a7.5 7.5 0 1 0 15 0 a7.5 7.5 0 1 0 -15 0zM857.93 1114.92 a7.5 7.5 0 1 0 15 0 a7.5 7.5 0 1 0 -15 0zM857.93 1189.92 a7.5 7.5 0 1 0 15 0 a7.5 7.5 0 1 0 -15 0zM792.97 1227.42 a7.5 7.5 0 1 0 15 0 a7.5 7.5 0 1 0 -15 0zM728.02 1189.92 a7.5 7.5 0 1 0 15 0 a7.5 7.5 0 1 0 -15 0zM728.02 1114.92 a7.5 7.5 0 1 0 15 0 a7.5 7.5 0 1 0 -15 0zM922.88 177.42 a7.5 7.5 0 1 0 15 0 a7.5 7.5 0 1 0 -15 0zM987.84 214.92 a7.5 7.5 0 1 0 15 0 a7.5 7.5 0 1 0 -15 0zM987.84 289.92 a7.5 7.5 0 1 0 15 0 a7.5 7.5 0 1 0 -15 0zM987.84 439.92 a7.5 7.5 0 1 0 15 0 a7.5 7.5 0 1 0 -15 0zM987.84 514.92 a7.5 7.5 0 1 0 15 0 a7.5 7.5 0 1 0 -15 0zM922.88 552.42 a7.5 7.5 0 1 0 15 0 a7.5 7.5 0 1 0 -15 0zM857.93 514.92 a7.5 7.5 0 1 0 15 0 a7.5 7.5 0 1 0 -15 0zM1052.79 552.42 a7.5 7.5 0 1 0 15 0 a7.5 7.5 0 1 0 -15 0zM1052.79 627.42 a7.5 7.5 0 1 0 15 0 a7.5 7.5 0 1 0 -15 0zM987.84 664.92 a7.5 7.5 0 1 0 15 0 a7.5 7.5 0 1 0 -15 0zM922.88 627.42 a7.5 7.5 0 1 0 15 0 a7.5 7.5 0 1 0 -15 0z" fill="rgba(84, 64, 1, 1)"></path><path d="M181.07 483.64L290.19 546.64L290.19 672.64L181.07 735.64L71.95 672.64L71.95 546.64zM181.07 861.64L290.19 924.64L290.19 1050.64L181.07 1113.64L71.95 1050.64L71.95 924.64zM71.95 1050.64L181.07 1113.64L181.07 1239.64L71.95 1302.64L-37.17 1239.64L-37.17 1113.64zM290.19 -83.36L399.32 -20.36L399.32 105.64L290.19 168.64L181.07 105.64L181.07 -20.36zM399.32 105.64L508.44 168.64L508.44 294.64L399.32 357.64L290.19 294.64L290.19 168.64zM290.19 294.64L399.32 357.64L399.32 483.64L290.19 546.64L181.07 483.64L181.07 357.64zM290.19 1050.64L399.32 1113.64L399.32 1239.64L290.19 1302.64L181.07 1239.64L181.07 1113.64zM617.56 483.64L726.68 546.64L726.68 672.64L617.56 735.64L508.44 672.64L508.44 546.64zM726.68 -83.36L835.81 -20.36L835.81 105.64L726.68 168.64L617.56 105.64L617.56 -20.36zM835.81 105.64L944.93 168.64L944.93 294.64L835.81 357.64L726.68 294.64L726.68 168.64zM726.68 294.64L835.81 357.64L835.81 483.64L726.68 546.64L617.56 483.64L617.56 357.64zM944.93 294.64L1054.05 357.64L1054.05 483.64L944.93 546.64L835.81 483.64L835.81 357.64zM944.93 672.64L1054.05 735.64L1054.05 861.64L944.93 924.64L835.81 861.64L835.81 735.64zM1054.05 861.64L1163.17 924.64L1163.17 1050.64L1054.05 1113.64L944.93 1050.64L944.93 924.64z" stroke="rgba(255, 202, 40, 0.93)" stroke-width="2"></path></g><defs><mask id="SvgjsMask1120"><rect width="978" height="1080" fill="#ffffff"></rect></mask></defs></svg>